<?xml version="1.0" encoding="UTF-8"?>
<svg width="336px" height="336px" viewBox="0 0 336 336" version="1.1" xmlns="http://www.w3.org/2000/svg" xmlns:xlink="http://www.w3.org/1999/xlink">
    <title>Dataminr Icon</title>
    <g id="Page-1" stroke="none" stroke-width="1" fill="none" fill-rule="evenodd">
        <g id="Dataminr-Icon" transform="translate(-179.9, -146.6)">
            <path d="M515.9,257.7 L515.9,204.5 C515.9,173.2 491,147.8 459.9,146.8 L459.9,257.8 L515.9,257.8 L515.9,257.7 Z" id="Path" fill="#6088EE"></path>
            <path d="M318.7,313.5 L318.7,398.9 L394.5,398.9 C415.3,398.9 432.2,382 432.2,361.2 L432.2,284.7 L347.5,284.7 C331.6,284.7 318.7,297.6 318.7,313.5 Z" id="Path" fill="#0A1726"></path>
            <path d="M347.5,257.7 L432.2,257.7 L432.2,146.6 L237.8,146.6 C205.8,146.6 179.9,172.5 179.9,204.5 L179.9,398.9 L291.7,398.9 L291.7,313.5 C291.7,282.7 316.7,257.7 347.5,257.7 Z" id="Path" fill="#6088EE"></path>
            <path d="M459.8,361.1 C459.8,397.1 430.5,426.4 394.5,426.4 L318.7,426.4 L318.7,482.4 L458,482.4 C490,482.4 515.9,456.5 515.9,424.5 L515.9,284.5 L459.9,284.5 L459.9,361 L459.8,361.1 Z" id="Path" fill="#6088EE"></path>
            <path d="M180.1,426.5 C181.1,457.6 206.5,482.5 237.8,482.5 L291.7,482.5 L291.7,426.5 L180.1,426.5 Z" id="Path" fill="#6088EE"></path>
        </g>
    </g>
</svg>